<?xml version="1.0" encoding="utf-8"?>
<!-- Generator: Adobe Illustrator 22.1.0, SVG Export Plug-In . SVG Version: 6.00 Build 0)  -->
<svg version="1.1" xmlns="http://www.w3.org/2000/svg" xmlns:xlink="http://www.w3.org/1999/xlink" x="0px" y="0px"
	 viewBox="0 0 135 179" style="enable-background:new 0 0 135 179; fill: #1B153E;" xml:space="preserve" height="200px">
<path d="M57.2,37.3h-5c-0.4,0-0.6-0.3-0.6-0.6V5c0-0.4,0.3-0.6,0.6-0.6h5.1c3.6,0,5.6,2.1,5.6,5.6v6.9c0,1.8-0.9,3-2.2,3.5
	c1.3,0.5,2.2,1.7,2.2,3.5v7.5C62.8,34.6,61.2,37.3,57.2,37.3z M58.9,9.6c0-1.2-0.6-1.9-1.6-1.9h-1.8v10.9h2c0.9,0,1.4-0.7,1.4-1.6
	C58.9,17,58.9,9.6,58.9,9.6z M58.9,23.7c0-1-0.5-1.6-1.4-1.6h-2v11.8h1.7c1.1,0,1.6-0.9,1.6-2.1v-8.1H58.9z"/>
<path d="M77.1,37.3H68c-0.4,0-0.6-0.3-0.6-0.6V5c0-0.4,0.3-0.6,0.6-0.6h9.1c0.4,0,0.6,0.3,0.6,0.6v2.1c0,0.4-0.3,0.6-0.6,0.6h-5.8
	v10.9h5.6c0.4,0,0.6,0.3,0.6,0.6v2.1c0,0.4-0.3,0.6-0.6,0.6h-5.6v12h5.8c0.4,0,0.6,0.3,0.6,0.6v2.1C77.7,37.1,77.5,37.3,77.1,37.3z"
	/>
<path d="M92.7,35.8c0.1,0.4,0.2,1,0.2,1.1c0,0.3-0.2,0.5-0.6,0.5h-2.7c-0.5,0-0.7-0.2-0.8-0.6l-2.4-14.2h-1v14.2
	c0,0.4-0.3,0.6-0.6,0.6H82c-0.4,0-0.6-0.3-0.6-0.6V5c0-0.4,0.3-0.6,0.6-0.6h5c3.7,0,5.7,1.8,5.7,5.2V17c0,2.6-1.1,4.4-3.1,5.1
	L92.7,35.8z M88.8,9.4c0-1.1-0.6-1.6-1.6-1.6h-1.8V19h1.7c1.1,0,1.7-0.8,1.7-2C88.8,17,88.8,9.4,88.8,9.4z"/>
<path d="M106.4,37.3h-9.1c-0.4,0-0.6-0.3-0.6-0.6V5c0-0.4,0.3-0.6,0.6-0.6h2.7c0.4,0,0.6,0.3,0.6,0.6v29h5.8c0.4,0,0.6,0.3,0.6,0.6
	v2.1C107,37.1,106.7,37.3,106.4,37.3z"/>
<path d="M113.5,37.3h-2.7c-0.4,0-0.6-0.3-0.6-0.6V5c0-0.4,0.3-0.6,0.6-0.6h2.7c0.4,0,0.6,0.3,0.6,0.6v31.7
	C114.2,37.1,113.9,37.3,113.5,37.3z"/>
<path d="M133.8,37.3h-3.1c-0.6,0-0.8-0.1-1-0.6l-6.2-19.1c-0.3-0.9-1-3.7-1.1-4c0,1,0.1,3.4,0.1,4.5v18.6c0,0.5-0.3,0.7-0.7,0.7
	h-2.6c-0.4,0-0.7-0.2-0.7-0.7V5c0-0.4,0.3-0.6,0.6-0.6h3.3c0.5,0,0.5,0.1,0.7,0.6l6.3,19.6c0.2,0.7,0.8,3.1,1.1,4.2
	c0-1.1-0.1-3.7-0.1-4.5V5c0-0.4,0.3-0.6,0.6-0.6h2.7c0.4,0,0.6,0.3,0.6,0.6v31.7C134.5,37.1,134.2,37.3,133.8,37.3z"/>
<path d="M61.3,86.4h-5.8v10.9h5.2c0.4,0,0.7,0.2,0.7,0.6v2.1c0,0.4-0.3,0.6-0.7,0.6h-5.2v14.6c0,0.5-0.2,0.7-0.7,0.7h-2.7
	c-0.4,0-0.6-0.3-0.6-0.7V83.7c0-0.4,0.3-0.6,0.6-0.6h9.1c0.4,0,0.6,0.3,0.6,0.6v2.1C61.9,86.1,61.7,86.4,61.3,86.4z"/>
<path d="M70.6,116.2c-3.7,0-5.7-2.4-5.7-6V88.7c0-3.7,2.3-5.9,5.7-5.9c3.5,0,5.6,2.2,5.6,5.9v21.5C76.2,113.8,74.2,116.2,70.6,116.2
	z M72.3,88.1c0-1.2-0.6-1.9-1.7-1.9c-1.2,0-1.7,0.8-1.7,1.9v22.8c0,1.1,0.6,1.9,1.7,1.9c1,0,1.6-0.7,1.6-1.9L72.3,88.1L72.3,88.1z"
	/>
<path d="M86.4,116.2c-3.7,0-5.7-2.4-5.7-6V88.7c0-3.7,2.3-5.9,5.7-5.9c3.5,0,5.6,2.2,5.6,5.9v21.5C92.1,113.8,90,116.2,86.4,116.2z
	 M88.1,88.1c0-1.2-0.6-1.9-1.7-1.9c-1.2,0-1.7,0.8-1.7,1.9v22.8c0,1.1,0.6,1.9,1.7,1.9c1,0,1.6-0.7,1.6-1.9L88.1,88.1L88.1,88.1z"/>
<path d="M102.2,116h-4.9c-0.4,0-0.6-0.3-0.6-0.6V83.7c0-0.4,0.3-0.6,0.6-0.6h5c3.9,0,5.7,2.3,5.7,6v20.8
	C108,113.3,106.3,116,102.2,116z M104,88.8c0-1.4-0.5-2.4-1.8-2.4h-1.6v26.1h1.6c1.4,0,1.8-1.1,1.8-2.4V88.8z"/>
<rect x="50.5" y="46.9" width="82.9" height="1.9"/>
<rect x="0.5" y="91.5" width="29.5" height="1.9"/>
<rect x="49.5" y="123.5" width="60.9" height="1.9"/>
<path d="M7.2,83h-5c-0.4,0-0.6-0.3-0.6-0.6V50.7c0-0.4,0.3-0.6,0.6-0.6h5.1c3.6,0,5.6,2.1,5.6,5.6v6.9c0,1.8-0.9,3-2.2,3.5
	c1.3,0.5,2.2,1.7,2.2,3.5V77C12.8,80.3,11.2,83,7.2,83z M8.9,55.3c0-1.2-0.6-1.9-1.6-1.9H5.5v10.9h2c0.9,0,1.4-0.7,1.4-1.6V55.3z
	 M8.9,69.3c0-1-0.5-1.6-1.4-1.6h-2v11.8h1.7c1.1,0,1.6-0.9,1.6-2.1L8.9,69.3L8.9,69.3z"/>
<path d="M25.6,71v11.4c0,0.4-0.2,0.6-0.6,0.6h-2.7c-0.4,0-0.7-0.3-0.7-0.6V71l-5.4-19.7C16.1,51,16,50.6,16,50.5
	c0-0.3,0.2-0.5,0.7-0.5h2.9c0.5,0,0.6,0.1,0.7,0.7l2.5,11.8c0.2,0.9,0.6,3.3,0.8,4.5c0.1-1,0.5-3.5,0.7-4.6l2.3-11.8
	c0.1-0.6,0.2-0.7,0.8-0.7h3c0.4,0,0.6,0.1,0.6,0.4c0,0.2-0.1,0.5-0.1,0.6L25.6,71z"/>
<rect x="40" y="0.2" width="1.9" height="178.2"/>
</svg>
